<svg xmlns="http://www.w3.org/2000/svg" viewBox="0 0 712 474" width="712" height="474" role="img" aria-label="Recall at 5 by method. Term weighting with comments reaches 63.8 percent, the best embedding model gte-small reaches 46.0 percent, and a recency control reaches 23.1 percent.">
<style>
  text { font-family: -apple-system, BlinkMacSystemFont, "Segoe UI", Roboto, sans-serif; }
  .bg  { fill: #fcfcfb; }
  .ttl { fill: #0b0b0b; font-size: 15px; font-weight: 600; }
  .sub, .cat, .lg { fill: #52514e; }
  .sub { font-size: 11.5px; } .cat { font-size: 12px; } .lg { font-size: 11.5px; }
  .val { fill: #0b0b0b; font-size: 12px; font-weight: 600; font-variant-numeric: tabular-nums; }
  .ax  { fill: #898781; font-size: 10.5px; }
  .grid { stroke: #e1e0d9; stroke-width: 1; }
  .base { stroke: #c3c2b7; stroke-width: 1; }
  .lex { fill: #2a78d6; } .emb { fill: #eb6834; } .ctl { fill: #898781; }
  @media (prefers-color-scheme: dark) {
    .bg  { fill: #1a1a19; }
    .ttl, .val { fill: #ffffff; }
    .sub, .cat, .lg { fill: #c3c2b7; }
    .grid { stroke: #2c2c2a; } .base { stroke: #383835; }
    .lex { fill: #3987e5; } .emb { fill: #d95926; }
  }
</style>
<rect class="bg" x="0" y="0" width="712" height="474"/>
<text class="ttl" x="0" y="20">Retrieving the cross-references a person wrote</text>
<text class="sub" x="0" y="38">recall@5 over 616 links on one forge. Higher is better.</text>
<rect class="lex" x="0" y="50" width="9" height="9" rx="2"/>
<text class="lg" x="14" y="58.5">term weighting</text>
<rect class="emb" x="118.2" y="50" width="9" height="9" rx="2"/>
<text class="lg" x="132.2" y="58.5">embedding model</text>
<rect class="ctl" x="242.7" y="50" width="9" height="9" rx="2"/>
<text class="lg" x="256.7" y="58.5">control</text>
<line class="grid" x1="208.0" y1="72" x2="208.0" y2="424"/>
<text class="ax" x="208.0" y="450" text-anchor="middle">0%</text>
<line class="grid" x1="269.4" y1="72" x2="269.4" y2="424"/>
<text class="ax" x="269.4" y="450" text-anchor="middle">10%</text>
<line class="grid" x1="330.9" y1="72" x2="330.9" y2="424"/>
<text class="ax" x="330.9" y="450" text-anchor="middle">20%</text>
<line class="grid" x1="392.3" y1="72" x2="392.3" y2="424"/>
<text class="ax" x="392.3" y="450" text-anchor="middle">30%</text>
<line class="grid" x1="453.7" y1="72" x2="453.7" y2="424"/>
<text class="ax" x="453.7" y="450" text-anchor="middle">40%</text>
<line class="grid" x1="515.1" y1="72" x2="515.1" y2="424"/>
<text class="ax" x="515.1" y="450" text-anchor="middle">50%</text>
<line class="grid" x1="576.6" y1="72" x2="576.6" y2="424"/>
<text class="ax" x="576.6" y="450" text-anchor="middle">60%</text>
<line class="grid" x1="638.0" y1="72" x2="638.0" y2="424"/>
<text class="ax" x="638.0" y="450" text-anchor="middle">70%</text>
<text class="cat" x="196" y="93.0" text-anchor="end">tfidf + comments</text>
<rect class="lex" x="208" y="78" width="391.9" height="22" rx="4"/>
<rect class="lex" x="208" y="78" width="4" height="22"/>
<text class="val" x="607.9" y="93.0">63.8%</text>
<text class="cat" x="196" y="125.0" text-anchor="end">tfidf word 1-2</text>
<rect class="lex" x="208" y="110" width="350.1" height="22" rx="4"/>
<rect class="lex" x="208" y="110" width="4" height="22"/>
<text class="val" x="566.1" y="125.0">57.0%</text>
<text class="cat" x="196" y="157.0" text-anchor="end">LSA-200</text>
<rect class="lex" x="208" y="142" width="345.8" height="22" rx="4"/>
<rect class="lex" x="208" y="142" width="4" height="22"/>
<text class="val" x="561.8" y="157.0">56.3%</text>
<text class="cat" x="196" y="189.0" text-anchor="end">tfidf char 3-5</text>
<rect class="lex" x="208" y="174" width="337.9" height="22" rx="4"/>
<rect class="lex" x="208" y="174" width="4" height="22"/>
<text class="val" x="553.9" y="189.0">55.0%</text>
<text class="cat" x="196" y="221.0" text-anchor="end">BM25</text>
<rect class="lex" x="208" y="206" width="292.4" height="22" rx="4"/>
<rect class="lex" x="208" y="206" width="4" height="22"/>
<text class="val" x="508.4" y="221.0">47.6%</text>
<text class="cat" x="196" y="253.0" text-anchor="end">gte-small</text>
<rect class="emb" x="208" y="238" width="282.6" height="22" rx="4"/>
<rect class="emb" x="208" y="238" width="4" height="22"/>
<text class="val" x="498.6" y="253.0">46.0%</text>
<text class="cat" x="196" y="285.0" text-anchor="end">multilingual-e5-small</text>
<rect class="emb" x="208" y="270" width="270.3" height="22" rx="4"/>
<rect class="emb" x="208" y="270" width="4" height="22"/>
<text class="val" x="486.3" y="285.0">44.0%</text>
<text class="cat" x="196" y="317.0" text-anchor="end">bge-small-en-v1.5</text>
<rect class="emb" x="208" y="302" width="268.4" height="22" rx="4"/>
<rect class="emb" x="208" y="302" width="4" height="22"/>
<text class="val" x="484.4" y="317.0">43.7%</text>
<text class="cat" x="196" y="349.0" text-anchor="end">all-MiniLM-L6-v2</text>
<rect class="emb" x="208" y="334" width="251.9" height="22" rx="4"/>
<rect class="emb" x="208" y="334" width="4" height="22"/>
<text class="val" x="467.9" y="349.0">41.0%</text>
<text class="cat" x="196" y="381.0" text-anchor="end">recency (control)</text>
<rect class="ctl" x="208" y="366" width="141.9" height="22" rx="4"/>
<rect class="ctl" x="208" y="366" width="4" height="22"/>
<text class="val" x="357.9" y="381.0">23.1%</text>
<text class="cat" x="196" y="413.0" text-anchor="end">random (control)</text>
<rect class="ctl" x="208" y="398" width="16.0" height="22" rx="4"/>
<rect class="ctl" x="208" y="398" width="4" height="22"/>
<text class="val" x="232.0" y="413.0">2.6%</text>
<line class="base" x1="208" y1="72" x2="208" y2="424"/>
</svg>
